<svg xmlns="http://www.w3.org/2000/svg" viewBox="0 0 288.08 285.53"><defs><style>.cls-1{fill:#00b994;}.cls-2{fill:#fff;}</style></defs><g id="Layer_2" data-name="Layer 2"><g id="olascafe"><path class="cls-1" d="M52,19.06,19.9,50.56A66.49,66.49,0,0,0,0,98v88.6a66.49,66.49,0,0,0,19.48,47L51.9,266.05a66.53,66.53,0,0,0,47,19.48h89.29a66.48,66.48,0,0,0,46.6-19.07l33.36-32.77a66.48,66.48,0,0,0,19.9-47.44V98.35A66.48,66.48,0,0,0,267.75,50.5l-33-31.85A66.45,66.45,0,0,0,188.57,0h-90A66.47,66.47,0,0,0,52,19.06Z"/><path class="cls-2" d="M204.68,183.78a4,4,0,0,1,3.29,6.39,79.71,79.71,0,0,1-8.43,9.9A81,81,0,1,1,207.93,95.3a4,4,0,0,1-3.29,6.4h-11.2a10.45,10.45,0,0,1-7.37-3,62,62,0,0,0-44.92-18.09c-32.38.56-60.31,28.3-61.06,60.68a62.16,62.16,0,0,0,106.3,45.22,9.39,9.39,0,0,1,6.69-2.73Z"/></g></g></svg>