<svg xmlns="http://www.w3.org/2000/svg" viewBox="0 0 288.08 285.53"><defs><style>.cls-1{fill:#fff;}</style></defs><g id="Layer_2" data-name="Layer 2"><g id="olascafe"><path d="M63.25,8,8.35,61.91A27.87,27.87,0,0,0,0,81.8V202.6a27.88,27.88,0,0,0,8.17,19.71l55,55.05a27.9,27.9,0,0,0,19.72,8.17H204a27.89,27.89,0,0,0,19.55-8l56.17-55.19a27.87,27.87,0,0,0,8.35-19.89V82a27.89,27.89,0,0,0-8.53-20.07l-56-54.06A27.87,27.87,0,0,0,204.16,0H82.78A27.88,27.88,0,0,0,63.25,8Z"/><rect class="cls-1" x="88.53" y="87.25" width="111.02" height="111.02" rx="27"/></g></g></svg>